<?xml version="1.0" encoding="utf-8"?>
<svg xmlns="http://www.w3.org/2000/svg" viewBox="0 0 48 48" fill="white" width="20" height="20"><defs><filter id="shadow" x="-50%" y="-50%" width="200%" height="200%"><feDropShadow dx="0" dy="0" stdDeviation="0.5" flood-color="black" flood-opacity="0.3"/></filter></defs><path fill="white" fill-rule="evenodd" d="M2 21.5c0-10.22 9.88-18 22-18s22 7.78 22 18c0 5.63-3.19 10.74-7.32 14.8a43.6 43.6 0 0 1-14.14 9.1A1.5 1.5 0 0 1 22.5 44v-5.04C11.13 38.4 2 31.34 2 21.5M14 25a3 3 0 1 0 0-6 3 3 0 0 0 0 6m10 0a3 3 0 1 0 0-6 3 3 0 0 0 0 6m13-3a3 3 0 1 1-6 0 3 3 0 0 1 6 0" clip-rule="evenodd" filter="url(#shadow)"></path></svg>
